<?xml version="1.0" encoding="utf-8"?>
<!-- Generator: Adobe Adobe Illustrator 24.2.0, SVG Export Plug-In . SVG Version: 6.00 Build 0)  -->
<svg version="1.1" id="Layer_1" xmlns="http://www.w3.org/2000/svg" xmlns:xlink="http://www.w3.org/1999/xlink" x="0px" y="0px"
	 width="200px" height="200px" viewBox="0 0 200 200" style="enable-background:new 0 0 200 200;" xml:space="preserve">
<style type="text/css">
	.st0{fill:#000000;}
</style>
<g>
	<path class="st0" d="M80.16,35.72c3.52-0.83,7.18-1.26,10.94-1.26c3.76,0,7.42,0.44,10.94,1.26c2.56,0.6,4.15,3.17,3.55,5.72
		c-0.6,2.56-3.17,4.15-5.73,3.55c-2.81-0.66-5.74-1.01-8.76-1.01s-5.95,0.35-8.76,1.01c-2.56,0.6-5.12-0.99-5.72-3.55
		C76.01,38.89,77.6,36.32,80.16,35.72 M109.59,43.11c1.38-2.24,4.32-2.93,6.55-1.54c6.28,3.89,11.57,9.19,15.47,15.47
		c1.38,2.24,0.7,5.17-1.54,6.56c-2.24,1.38-5.17,0.7-6.56-1.54c-3.12-5.03-7.35-9.27-12.38-12.38
		C108.89,48.28,108.2,45.34,109.59,43.11 M72.61,43.11c1.38,2.24,0.7,5.17-1.54,6.56c-5.03,3.12-9.27,7.35-12.38,12.38
		c-1.38,2.24-4.32,2.93-6.56,1.54c-2.24-1.38-2.93-4.32-1.54-6.56c3.89-6.28,9.19-11.57,15.47-15.47
		C68.29,40.18,71.23,40.87,72.61,43.11 M50.47,67.59c2.56,0.6,4.15,3.17,3.55,5.73C53.35,76.13,53,79.06,53,82.08
		c0,3.02,0.35,5.95,1.01,8.76c0.6,2.56-0.98,5.12-3.55,5.73c-2.56,0.6-5.12-0.99-5.72-3.55c-0.84-3.59-1.27-7.26-1.26-10.94
		c0-3.76,0.44-7.42,1.26-10.94C45.34,68.58,47.91,66.99,50.47,67.59 M131.73,67.59c2.56-0.6,5.12,0.98,5.73,3.55
		c0.83,3.52,1.26,7.18,1.26,10.94s-0.44,7.42-1.26,10.94c-0.6,2.56-3.17,4.15-5.73,3.55s-4.15-3.17-3.55-5.73
		c0.66-2.81,1.01-5.74,1.01-8.76c0-3.02-0.35-5.95-1.01-8.76C127.58,70.76,129.17,68.19,131.73,67.59 M52.13,100.56
		c2.24-1.38,5.17-0.7,6.56,1.54c3.12,5.03,7.35,9.27,12.38,12.38c2.24,1.38,2.93,4.32,1.54,6.56c-1.38,2.24-4.32,2.93-6.56,1.54
		c-6.28-3.89-11.57-9.19-15.47-15.47C49.21,104.88,49.9,101.95,52.13,100.56 M132.16,108.22c1.29-2.29,0.48-5.2-1.82-6.48
		c-2.29-1.29-5.19-0.48-6.48,1.8l0,0.01l0,0l-0.06,0.1l-0.3,0.48c-0.28,0.44-0.72,1.08-1.31,1.88c-1.08,1.44-2.26,2.8-3.52,4.08
		c-5.68-4.82-13.31-8.96-22.8-8.96c-10.79,0-19.05,5.72-19.05,14.29c0,8.57,8.25,14.29,19.05,14.29c9.1,0,16.47-3.02,22.09-6.74
		c1.65,2.02,2.96,3.96,3.92,5.52c0.63,1.02,19.45,24.87,25.01,33.79c0.98,1.58,3.15,4.49,6.9,2.74c2.38-1.11,3.4-3.96,2.28-6.34
		c-0.56-1.1,0-0.01,0-0.01l0-0.01l-0.01-0.03l-0.04-0.08l-0.07-0.14l-0.05-0.11c0,0-0.34-0.65-0.45-0.87
		c-0.38-0.73-24.71-32.75-25.46-33.96c-1.13-1.83-2.69-4.14-4.67-6.56c1.9-1.91,3.4-3.73,4.5-5.19c0.75-0.99,1.31-1.83,1.7-2.44
		l0.46-0.73l0.13-0.22l0.04-0.07l0.01-0.03L132.16,108.22L132.16,108.22z M95.86,110.65c5.84,0,10.89,2.27,15.09,5.45
		c-4.1,2.36-9.12,4.07-15.09,4.07c-8.25,0-9.52-3.81-9.52-4.76C86.34,114.46,87.61,110.65,95.86,110.65"/>
</g>
</svg>
